HIERARCHY
ROOT ui
{
	 OFFSET 0 0 0
	 CHANNELS 3 XPosition YPosition Z Position
	 EndSite
	 {
	 OFFSET 0 -1 0
	 }
}
ROOT li
{
	 OFFSET 0 0 0
	 CHANNELS 3 XPosition YPosition Z Position
	 EndSite
	 {
	 OFFSET 0 -1 0
	 }
}
ROOT ul
{
	 OFFSET 0 0 0
	 CHANNELS 3 XPosition YPosition Z Position
	 EndSite
	 {
	 OFFSET 0 -1 0
	 }
}
ROOT ll
{
	 OFFSET 0 0 0
	 CHANNELS 3 XPosition YPosition Z Position
	 EndSite
	 {
	 OFFSET 0 -1 0
	 }
}
ROOT tt
{
	 OFFSET 0 0 0
	 CHANNELS 3 XPosition YPosition Z Position
	 EndSite
	 {
	 OFFSET 0 -1 0
	 }
}
ROOT tb
{
	 OFFSET 0 0 0
	 CHANNELS 3 XPosition YPosition Z Position
	 EndSite
	 {
	 OFFSET 0 -1 0
	 }
}
ROOT td
{
	 OFFSET 0 0 0
	 CHANNELS 3 XPosition YPosition Z Position
	 EndSite
	 {
	 OFFSET 0 -1 0
	 }
}
ROOT v
{
	 OFFSET 0 0 0
	 CHANNELS 3 XPosition YPosition Z Position
	 EndSite
	 {
	 OFFSET 0 -1 0
	 }
}
ROOT bn
{
	 OFFSET 0 0 0
	 CHANNELS 3 XPosition YPosition Z Position
	 EndSite
	 {
	 OFFSET 0 -1 0
	 }
}
MOTION
Frames: 19
Frame Time: 0.002
-0.004219604015350342	-0.0035248799324035644	0		0.4235081787109375	-2.39187548828125	0		-1.058955322265625	0.16531097412109375	0		-0.5491141357421875	-3.04091162109375	0		1.9805631103515624	-0.03455394744873047	0		3.560967529296875	0.5008958740234375	0		4.726751953125	0.13972373962402343	0		5.92364892578125	0.4610543518066406	0		-0.23291123962402344	5.91646630859375	0		
0.0019223109483718873	0.0032326440811157224	0		0.4276217346191406	-2.388070068359375	0		-0.9758528442382812	0.16946365356445312	0		-0.4930233459472656	-3.039193603515625	0		2.0262838134765624	-0.048590774536132815	0		3.583202392578125	0.5123713989257812	0		4.741869140625	0.14536129760742186	0		5.9448017578125	0.46858416748046877	0		-0.08538591766357422	5.94430322265625	0		
0.023841941833496094	-0.0013525480031967164	0		0.44846182250976563	-2.39762939453125	0		-0.9880720825195313	0.15857229614257812	0		-0.4893797302246094	-3.05840869140625	0		1.994967529296875	-0.06405937957763672	0		3.543109619140625	0.5081015014648438	0		4.7370615234375	0.15437722778320312	0		5.93099267578125	0.4777976989746094	0		-0.11582313537597656	5.9257939453125	0		
-0.0011141879558563233	1.5682000666856764E-5	0		0.4184600830078125	-2.39915478515625	0		-0.9880552368164063	0.1584183349609375	0		-0.4954855651855469	-3.06543408203125	0		1.9908834228515624	-0.0691107406616211	0		3.539001220703125	0.5020602111816406	0		4.728791015625	0.1404277801513672	0		5.934841796875	0.46960690307617187	0		-0.11584294128417968	5.9256455078125	0		
-0.004166784763336181	-0.0040858969688415524	0		0.41645657348632814	-2.40127587890625	0		-0.9880264282226563	0.15825068664550782	0		-0.4995483093261719	-3.0705166015625	0		1.9724215087890624	-0.09289185333251954	0		3.53088623046875	0.49507431030273436	0		4.7219658203125	0.14742225646972656	0		5.92687109375	0.4696275634765625	0		-0.11583350372314453	5.92548095703125	0		
-0.0010448739528656006	-3.3022400736808775E-4	0		0.43512261962890625	-2.419845458984375	0		-0.9879865112304688	0.15806849670410156	0		-0.4897354736328125	-3.081902587890625	0		1.9693797607421875	-0.09700942993164062	0		3.5310703125	0.5018934631347656	0		4.72683984375	0.13914218139648438	0		5.92372607421875	0.4605135192871094	0		-0.23399906921386718	5.916736328125	0		
0.0020665290355682373	0.002408236026763916	0		0.4273973388671875	-2.40888232421875	0		-1.04967529296875	0.1711480712890625	0		-0.524641845703125	-3.07937890625	0		1.976077392578125	-0.11435261535644531	0		3.513125	0.5020599060058594	0		4.7152021484375	0.1541795654296875	0		5.92794091796875	0.46822018432617185	0		-0.10151296234130859	5.93580908203125	0		
-9.348030090332031E-4	-7.456740140914917E-4	0		0.4243671569824219	-2.41303759765625	0		-0.9878756713867187	0.15765809631347658	0		-0.46391497802734377	-3.095849365234375	0		1.9887420654296875	-0.13384007263183595	0		3.52206103515625	0.49564700317382815	0		4.72626025390625	0.15372001647949218	0		5.935021484375	0.4688388366699219	0		-0.10143281555175782	5.93559326171875	0		
-8.653709888458252E-4	-9.797160029411315E-4	0		0.4301355895996094	-2.427394287109375	0		-0.9937010498046875	0.16255122375488282	0		-0.5008514099121094	-3.0953173828125	0		1.9623621826171875	-0.15554151916503905	0		3.522132568359375	0.4953973083496094	0		4.71051953125	0.1627933654785156	0		5.9270947265625	0.4687435913085938	0		-0.11651960754394532	5.9266708984375	0		
-0.0038686230182647706	-0.005168598175048828	0		0.4639263916015625	-2.44134765625	0		-0.9877260131835938	0.1571817169189453	0		-0.46120977783203126	-3.11638818359375	0		1.9521944580078125	-0.1675940246582031	0		3.50911328125	0.49039739990234377	0		4.71059912109375	0.1625179901123047	0		5.92399072265625	0.45952597045898436	0		-0.11641110229492188	5.926419921875	0		
-0.005614788055419922	0.002602030038833618	0		0.4380484619140625	-2.43908251953125	0		-0.987636962890625	0.15691796875	0		-0.4930074157714844	-3.1099951171875	0		1.967885986328125	-0.1871998291015625	0		3.4780869140625	0.4847513122558594	0		4.71550146484375	0.15312257385253905	0		5.91508349609375	0.4594113464355469	0		-0.233534912109375	5.91557080078125	0		
0.007357073783874512	-0.003950748920440674	0		0.47594024658203127	-2.4491533203125	0		-0.9753128662109375	0.1673873596191406	0		-0.4482032470703125	-3.124205078125	0		1.969776611328125	-0.19753480529785156	0		3.51828271484375	0.48862017822265624	0		4.71491064453125	0.16782989501953124	0		5.93251123046875	0.4747402954101563	0		-0.08577570343017578	5.94424267578125	0		
0.00257157301902771	8.505539894104004E-4	0		0.4361925048828125	-2.44163134765625	0		-0.9933221435546875	0.16146408081054686	0		-0.4542506103515625	-3.13137841796875	0		1.9565372314453124	-0.21457235717773437	0		3.465302978515625	0.4843996276855469	0		4.70506494140625	0.16971388244628907	0		5.93229296875	0.4584159851074219	0		-0.10182127380371093	5.93527490234375	0		
-0.005283558845520019	0.0017006789445877075	0		0.4850899963378906	-2.452958251953125	0		-0.9202354125976563	0.158643798828125	0		-0.4551793518066406	-3.1336708984375	0		1.957162841796875	-0.23890919494628907	0		3.47019873046875	0.4729724731445312	0		4.7120419921875	0.1622405548095703	0		5.91960546875	0.4673486328125	0		-0.1168624496459961	5.92627197265625	0		
-2.3191800713539125E-4	-0.002729480028152466	0		0.4380661926269531	-2.460313720703125	0		-0.9930634765625	0.16082618713378907	0		-0.4581102600097656	-3.136935302734375	0		1.94882421875	-0.2620697021484375	0		3.457337646484375	0.47290802001953125	0		4.6963671875	0.1712342071533203	0		5.91974169921875	0.4670115966796875	0		-0.10249333953857422	5.93665283203125	0		
0.02489072608947754	-0.004584862232208252	0		0.4662093811035156	-2.461231201171875	0		-0.9929148559570312	0.16048709106445314	0		-0.4770188903808594	-3.139880859375	0		1.9507657470703126	-0.2724473571777344	0		3.453363037109375	0.46665383911132813	0		4.69582568359375	0.185913818359375	0		5.924703125	0.45757260131835936	0		-0.21858988952636718	5.92571435546875	0		
-0.0017564200162887573	0.0046230158805847165	0		0.44248434448242185	-2.45608349609375	0		-0.992754150390625	0.16013665771484376	0		-0.4418996887207031	-3.142953125	0		1.958574462890625	-0.2899530029296875	0		3.43540283203125	0.46068649291992186	0		4.695986328125	0.18557591247558594	0		5.92486328125	0.45723739624023435	0		-0.08699451446533203	5.9456533203125	0		
2.4836499989032743E-4	-0.003772047996520996	0		0.49144888305664064	-2.467447265625	0		-0.9976659545898438	0.15588088989257812	0		-0.477707275390625	-3.142566650390625	0		1.94850048828125	-0.30209042358398436	0		3.4404462890625	0.4542445373535156	0		4.69817626953125	0.18620014953613281	0		5.92021875	0.46601010131835935	0		-0.10205426025390625	5.93560986328125	0		
-0.0044922599792480465	-2.9944000765681267E-5	0		0.4346749267578125	-2.465626953125	0		-0.9974913940429687	0.15551347351074218	0		-0.4574102783203125	-3.138344482421875	0		1.936350341796875	-0.31818560791015627	0		3.44061865234375	0.45390869140625	0		4.68939404296875	0.1880587158203125	0		5.9283896484375	0.46552664184570314	0		-0.10192081451416016	5.93524853515625	0		
